<svg xmlns="http://www.w3.org/2000/svg" xmlns:xlink="http://www.w3.org/1999/xlink" viewBox="0,0,256,256" width="32px" height="32px"><g fill="#3c50e0" fillRule="nonzero" stroke="none" strokeWidth="1" strokeLinecap="butt" strokeLinejoin="miter" strokeMiterlimit="10" stroke-dasharray="" stroke-dashoffset="0" font-family="none" font-weight="none" font-size="none" text-anchor="none" style="mix-blend-mode: normal"><g transform="scale(8,8)"><path d="M20.45508,4.75195c-1.10803,0.02382 -2.25302,0.33738 -3.34375,1.01172c-2.2208,1.37243 -4.27235,2.9859 -6.12109,4.80273c-2.42528,2.38416 -4.1012,5.33193 -5.12695,8.50391c-0.13708,0.18947 -0.20342,0.42098 -0.1875,0.6543c-0.59538,2.06533 -0.98411,4.19616 -0.93359,6.38281c0.01414,0.62277 0.52936,1.13727 1.15234,1.15039c2.18599,0.0503 4.31618,-0.33832 6.38086,-0.93359c0.23331,0.01592 0.46483,-0.05042 0.6543,-0.1875c3.17192,-1.02587 6.11834,-2.70295 8.50195,-5.12891c1.81794,-1.84985 3.43047,-3.90159 4.80273,-6.12109c1.79825,-2.90862 1.03036,-6.1923 -0.94922,-8.17188c-0.98979,-0.98979 -2.30622,-1.67772 -3.73828,-1.89258c-0.35802,-0.05371 -0.72245,-0.07825 -1.0918,-0.07031zM20.54102,6.7207c0.25561,-0.00594 0.50641,0.012 0.75195,0.05078c0.98216,0.15511 1.87254,0.65184 2.57813,1.35742c1.41117,1.41117 1.98786,3.56265 0.66211,5.70703c-0.07141,0.11549 -0.17722,0.20383 -0.25,0.31836c-1.47321,-2.73893 -3.69635,-4.96639 -6.43164,-6.44531c0.11221,-0.07124 0.19936,-0.17422 0.3125,-0.24414c0.80414,-0.49716 1.61013,-0.72631 2.37695,-0.74414zM16.125,9.06445c3.01318,1.39249 5.41959,3.79896 6.80469,6.81641c-0.9362,1.27607 -1.81712,2.59848 -2.92383,3.72461c-1.96292,1.9978 -4.34421,3.4636 -6.92383,4.41797c-0.53337,-2.59687 -2.5086,-4.5721 -5.10547,-5.10547c0.95411,-2.57931 2.4192,-4.96055 4.41602,-6.92383c1.12745,-1.10799 2.45384,-1.99205 3.73242,-2.92969zM7.43359,20.80664c1.95559,0.32565 3.43411,1.80418 3.75977,3.75977c-1.42859,0.36781 -2.88751,0.58993 -4.38281,0.62305c0.03312,-1.49531 0.25527,-2.95418 0.62305,-4.38281z"></path></g></g></svg>